<?xml version="1.0" encoding="UTF-8" standalone="no"?>
<svg
   xmlns:dc="http://purl.org/dc/elements/1.1/"
   xmlns:cc="http://creativecommons.org/ns#"
   xmlns:rdf="http://www.w3.org/1999/02/22-rdf-syntax-ns#"
   xmlns:svg="http://www.w3.org/2000/svg"
   xmlns="http://www.w3.org/2000/svg"
   xmlns:sodipodi="http://sodipodi.sourceforge.net/DTD/sodipodi-0.dtd"
   xmlns:inkscape="http://www.inkscape.org/namespaces/inkscape"
   width="600"
   height="700"
   viewBox="0 0 450 524.99999"
   version="1.1"
   id="svg30"
   sodipodi:docname="white.svg"
   inkscape:version="0.92.5 (2060ec1f9f, 2020-04-08)">
  <metadata
     id="metadata36">
    <rdf:RDF>
      <cc:Work
         rdf:about="">
        <dc:format>image/svg+xml</dc:format>
        <dc:type
           rdf:resource="http://purl.org/dc/dcmitype/StillImage" />
        <dc:title></dc:title>
      </cc:Work>
    </rdf:RDF>
  </metadata>
  <defs
     id="defs34" />
  <sodipodi:namedview
     pagecolor="#ffffff"
     bordercolor="#666666"
     borderopacity="1"
     objecttolerance="10"
     gridtolerance="10"
     guidetolerance="10"
     inkscape:pageopacity="0"
     inkscape:pageshadow="2"
     inkscape:window-width="1366"
     inkscape:window-height="715"
     id="namedview32"
     showgrid="false"
     units="px"
     inkscape:zoom="0.30615234"
     inkscape:cx="895.01804"
     inkscape:cy="460.83586"
     inkscape:window-x="0"
     inkscape:window-y="25"
     inkscape:window-maximized="1"
     inkscape:current-layer="svg30" />
  <g
     id="#ffffffff"
     transform="matrix(1.5654865,0,0,1.5654865,-576.39034,-179.54864)">
    <path
       d="m 495.34,124.35 c 10.91,-11.5 30.84,-11.72 42.49,-1.2 7.03,6.36 11.86,14.69 18.53,21.4 13.5,16.38 30.17,30.71 39.13,50.37 -8.37,19.37 -19.95,37.08 -30.36,55.37 -1.21,1.98 -0.96,4.41 -1.08,6.64 0.06,5.04 0.04,10.09 -0.6,15.11 -2.22,2.82 -2.77,6.57 -5.03,9.38 -3.89,5.76 -9.59,9.87 -14.89,14.23 -1.09,0.82 -2.22,1.63 -3.5,2.12 -1.02,-0.75 -1.95,-1.56 -2.89,-2.37 -0.16,1.67 -0.32,3.35 -0.45,5.04 -5.78,3.38 -11.43,7.05 -17.66,9.59 -6.39,-2.32 -12.46,-5.47 -18.27,-8.97 -1.88,-0.97 -1.28,-3.46 -1.77,-5.14 -0.94,0.68 -1.89,1.34 -2.84,2 -9.89,-5.84 -18.8,-14.19 -23.19,-25 -2.84,-6.33 -0.2,-13.54 -2,-20.03 -9.29,-16.81 -19.25,-33.25 -28.54,-50.06 -3.98,-7.73 -1.72,-18.02 4.93,-23.54 14.55,-11.04 32.03,-17.83 49.99,-20.74 0.44,-0.53 1.3,-1.61 1.73,-2.15 -15.49,1.44 -30.64,6.44 -44.1,14.25 13.67,-15.25 26.47,-31.26 40.37,-46.3 m 42.1,34.17 c 2.03,1.1 4.24,1.79 6.45,2.42 9.9,2.75 19.3,6.96 29.12,9.97 -11.77,-4.34 -23.24,-9.85 -35.57,-12.39 M 480.62,206 c -0.05,8.72 -1.63,18.25 3.15,26.11 4.24,7.8 14.76,8.78 18.98,16.62 2.59,-4.34 6.8,-7.23 11.31,-9.28 -0.38,-1.49 -1.47,-2.65 -2.21,-3.94 4.04,-0.1 8.09,-0.17 12.14,0.01 -1.05,1.25 -2.07,2.5 -3.11,3.74 4.96,1.75 9.24,5.08 12.1,9.51 2.18,-3.43 5.07,-6.49 8.88,-8.08 6.39,-2.88 11.53,-8.71 12.97,-15.63 0.77,-6.69 0.84,-13.47 0.18,-20.17 -0.83,-10.57 -13.79,-17.37 -23.22,-13.12 -6.41,1.99 -8.05,9.75 -14.03,12.33 -5.9,-3.06 -8.13,-10.81 -14.86,-12.65 -9.72,-3.9 -22.22,3.89 -22.28,14.55 m 31.08,43.62 c -3.45,2.35 -5.14,6.48 -5.34,10.54 4.57,-0.8 7.97,-4.26 9.62,-8.45 0.86,0.07 2.59,0.22 3.45,0.29 2.77,3.34 5.24,7.43 9.89,8.32 -0.53,-3.21 -1.16,-6.65 -3.5,-9.09 -3.39,-4.04 -9.93,-4.85 -14.12,-1.61 z"
       id="path2"
       inkscape:connector-curvature="0"
       style="opacity:1;fill:#ffffff" />
    <path
       d="m 491.69,213.65 c 3.37,2.4 6.22,7.45 11.05,6 2.62,-0.7 4.37,-6.66 7.23,-3.53 -0.98,6.27 -9.59,8.91 -14.55,5.44 -3.05,-1.41 -3.56,-4.93 -3.73,-7.91 z"
       id="path4"
       inkscape:connector-curvature="0"
       style="opacity:1;fill:#ffffff" />
    <path
       d="m 420.63,284.54 c 9.08,-6.69 19.84,-10.5 30.58,-13.59 7.13,5.38 15.17,11.71 16.48,21.15 -0.18,5.82 -4.34,10.55 -5.53,16.16 -1.94,5.11 0.52,10.3 2.8,14.82 3.78,6.58 11.17,9.41 16.98,13.78 5.99,4.23 9.32,11.01 12.73,17.28 8.56,16.51 11.1,35.43 10.06,53.82 1.3,15.1 1.27,30.29 2.02,45.43 -19.61,-2.5 -39.65,-4.45 -58.06,-12.15 -3.28,-1.32 -5.26,-4.76 -5.91,-8.08 0.55,-2.88 1.4,-5.85 0.47,-8.74 -3.3,-16.17 -14.87,-28.97 -19.27,-44.73 17.17,17.26 22.91,42.64 40.44,59.6 -6.42,-10.73 -12.35,-21.74 -18.1,-32.84 -2.5,-4.71 -4.7,-9.59 -7.7,-14.01 -4.67,-6.92 -10.26,-13.42 -12.98,-21.44 0.14,-0.82 0.43,-2.48 0.58,-3.3 -5.56,-2.68 -10.72,-6.08 -16.12,-9.04 5.83,17.34 12.31,34.46 19.45,51.3 -12.81,-6.81 -26.65,-12.59 -41.24,-13.73 11.06,4.23 22.56,7.55 32.86,13.52 7.23,4.13 13.62,10.1 17.31,17.64 1.58,3.53 1.64,7.49 2.08,11.28 -23.45,-13.73 -47.83,-27.52 -65.49,-48.66 10.21,-27.53 19.13,-55.53 28.48,-83.36 2.78,-9.15 9.33,-16.72 17.08,-22.11 m -8,17.88 c 2.01,16.48 10.34,31.53 11.39,48.19 -5.86,-6.11 -9.1,-14.11 -11.35,-22.15 -0.44,2.46 -1.18,5.01 -0.47,7.5 1.57,9.67 8.64,16.97 14.62,24.23 -0.39,2.32 -0.74,4.65 -1.02,6.99 1.93,-2.31 3.01,-5.13 4.18,-7.86 3.24,5.99 6.67,11.86 10.02,17.81 -12.56,-23.62 -14.64,-51.2 -27.37,-74.71 m -19.6,67.81 c 0.25,2.89 0.16,5.88 1.2,8.65 0.53,-0.84 0.98,-1.71 1.36,-2.62 l 0.43,0.09 c 2.2,-5.59 1.79,-11.68 1.45,-17.54 -3.45,2.7 -5.05,7.11 -4.44,11.42 z"
       id="path6"
       inkscape:connector-curvature="0"
       style="opacity:1;fill:#ffffff" />
    <path
       d="m 573.05,270.59 c 13.75,6.83 29.25,10.35 41.67,19.76 7.25,5.43 11.83,13.5 15.33,21.68 7.99,18.35 10.62,38.37 16.58,57.36 -1.77,-0.38 -3.54,-0.78 -5.29,-1.2 0.18,8.08 2.43,15.88 4.31,23.66 -1.86,3.09 -4.06,5.95 -6.07,8.94 -0.76,-0.34 -2.29,-1.02 -3.06,-1.36 0.88,-8.67 1.13,-17.38 0.61,-26.08 -3.35,3.22 -7.29,5.75 -11.61,7.47 0.04,-13.31 0.34,-26.62 0.02,-39.93 -6.77,17.41 -22.66,28.58 -37.66,38.48 4.7,-8.26 9.44,-16.52 13.47,-25.14 2.11,-6.24 1.95,-12.94 2.57,-19.43 0.68,-7.13 -0.21,-14.25 -0.47,-21.36 -1.92,2.67 -3.74,5.42 -5.51,8.21 -2.72,-1.43 -5.39,-2.92 -8.01,-4.52 1.92,-5.35 3.32,-10.85 5.02,-16.26 -6.53,6.09 -13.43,11.9 -21.34,16.13 2.26,-6.15 3.93,-12.61 3.86,-19.21 -6.13,5.04 -12.68,9.62 -19.8,13.16 3.36,-6.1 6.8,-12.16 10.12,-18.29 -0.98,-0.89 -1.93,-1.79 -2.86,-2.69 7.22,-1.08 15.97,-0.18 20.18,6.62 -0.91,-2.3 -1.65,-4.67 -2.47,-7 2.46,-1.06 4.93,-2.1 7.37,-3.24 -0.65,-1.28 -1.31,-2.57 -1.93,-3.85 -0.75,2.21 -1.71,4.55 -3.95,5.62 -5.89,1.22 -11.85,-0.31 -17.78,0.03 5.01,-4.48 5,-11.55 6.7,-17.56 m 45.39,41.83 c -4.11,13.73 -8.37,27.43 -13.3,40.89 7.38,-10.5 10.7,-23.09 13.18,-35.51 0.16,-1.64 0.98,-3.38 0.27,-4.97 1.68,-0.47 2.24,-3.12 1.39,-4.5 -1.77,-0.16 -2.03,2.8 -1.54,4.09 m 2.02,24.33 c 6.01,-2.56 8.43,-9.62 7.63,-15.72 -6.27,2.25 -8.03,9.78 -7.63,15.72 z"
       id="path8"
       inkscape:connector-curvature="0"
       style="opacity:1;fill:#ffffff" />
    <path
       d="m 649.71,389.11 c -6.58,-3.36 -7.54,-12.52 -5.07,-18.76 4.99,4.87 5.34,12.23 5.07,18.76 z"
       id="path10"
       inkscape:connector-curvature="0"
       style="opacity:1;fill:#ffffff" />
  </g>
  <g
     id="#000000ff"
     transform="translate(592.8421,-79.397159)" />
  <g
     id="#93bfbff3"
     transform="matrix(1.5654865,0,0,1.5654865,-576.39034,-179.54864)">
    <path
       d="m 525.82,214.03 c 0.95,0.64 1.92,1.28 2.86,1.95 -0.67,-0.28 -2.02,-0.84 -2.7,-1.12 0.98,2.58 2.19,5.13 4.04,7.22 -3.03,-1.6 -4.48,-4.68 -4.2,-8.05 z"
       id="path14"
       inkscape:connector-curvature="0"
       style="opacity:0.95;fill:#93bfbf" />
  </g>
  <g
     id="#9dc4c4f6"
     transform="matrix(1.5654865,0,0,1.5654865,-576.39034,-179.54864)">
    <path
       d="m 535.8,220.43 c 2.29,-1.93 4.42,-4.07 6.89,-5.79 -2.04,2.21 -4.14,4.46 -6.89,5.79 z"
       id="path17"
       inkscape:connector-curvature="0"
       style="opacity:0.95999995;fill:#9dc4c4" />
  </g>
  <g
     id="#fefefefe"
     transform="matrix(1.5654865,0,0,1.5654865,-576.39034,-179.54864)">
    <path
       d="m 542.69,214.64 c 1.26,0.77 1.52,2.53 0.67,3.71 -1.51,2.35 -3.93,4.51 -6.85,4.6 -1.01,-0.04 -2.01,-0.04 -3,0 -1.21,-0.12 -2.37,-0.41 -3.49,-0.87 -1.85,-2.09 -3.06,-4.64 -4.04,-7.22 0.68,0.28 2.03,0.84 2.7,1.12 2.23,1.64 4.07,4.41 7.12,4.45 2.75,-1.33 4.85,-3.58 6.89,-5.79 z"
       id="path20"
       inkscape:connector-curvature="0"
       style="opacity:1;fill:#fefefe" />
  </g>
  <g
     id="#063c3cf9"
     transform="translate(592.8421,-79.397159)" />
  <g
     id="#568c8cf2"
     transform="matrix(1.5654865,0,0,1.5654865,-576.39034,-179.54864)">
    <path
       d="m 393.03,370.23 c 0.65,1.9 0.02,4.82 2.06,5.91 l 0.5,0.12 c -0.38,0.91 -0.83,1.78 -1.36,2.62 -1.04,-2.77 -0.95,-5.76 -1.2,-8.65 z"
       id="path27"
       inkscape:connector-curvature="0"
       style="opacity:0.95;fill:#568c8c" />
  </g>
</svg>
