<?xml version="1.0" encoding="UTF-8" standalone="no"?>
<svg
   xmlns:dc="http://purl.org/dc/elements/1.1/"
   xmlns:cc="http://creativecommons.org/ns#"
   xmlns:rdf="http://www.w3.org/1999/02/22-rdf-syntax-ns#"
   xmlns:svg="http://www.w3.org/2000/svg"
   xmlns="http://www.w3.org/2000/svg"
   xmlns:sodipodi="http://sodipodi.sourceforge.net/DTD/sodipodi-0.dtd"
   xmlns:inkscape="http://www.inkscape.org/namespaces/inkscape"
   width="600"
   height="700"
   viewBox="0 0 450 525.00002"
   version="1.1"
   id="svg16"
   sodipodi:docname="black.svg"
   inkscape:version="0.92.5 (2060ec1f9f, 2020-04-08)">
  <metadata
     id="metadata22">
    <rdf:RDF>
      <cc:Work
         rdf:about="">
        <dc:format>image/svg+xml</dc:format>
        <dc:type
           rdf:resource="http://purl.org/dc/dcmitype/StillImage" />
        <dc:title></dc:title>
      </cc:Work>
    </rdf:RDF>
  </metadata>
  <defs
     id="defs20" />
  <sodipodi:namedview
     pagecolor="#ffffff"
     bordercolor="#666666"
     borderopacity="1"
     objecttolerance="10"
     gridtolerance="10"
     guidetolerance="10"
     inkscape:pageopacity="0"
     inkscape:pageshadow="2"
     inkscape:window-width="1366"
     inkscape:window-height="715"
     id="namedview18"
     showgrid="false"
     units="px"
     inkscape:zoom="0.18794964"
     inkscape:cx="1112"
     inkscape:cy="593.40989"
     inkscape:window-x="0"
     inkscape:window-y="25"
     inkscape:window-maximized="1"
     inkscape:current-layer="svg16" />
  <g
     id="#000000ff"
     transform="matrix(0.93765648,0,0,0.96339715,-556.52655,-181.53761)">
    <path
       d="m 812.29,197.31 c 17.9,-13.07 44.54,-12.31 61.71,1.68 12.57,10.59 20.73,25.21 32.29,36.78 17.38,21.23 37.87,39.95 52.98,63 3.92,6.07 7.57,12.35 10.36,19.04 -13.36,30.93 -31.7,59.3 -48.45,88.42 -1.04,1.84 -2.32,3.67 -2.38,5.87 -1.1,11.21 0.8,22.64 -1.83,33.72 l -1.41,-0.47 c -3.13,12.24 -12.26,21.68 -21.72,29.5 -4.62,3.63 -9,7.59 -13.99,10.72 -1.98,-1.16 -3.75,-2.62 -5.4,-4.18 -0.05,2.78 -0.18,5.57 -0.38,8.36 -9.49,5.51 -18.71,11.6 -28.95,15.67 -10.27,-3.61 -19.87,-8.82 -29.3,-14.2 -3.31,-1.75 -2.82,-6.05 -3.56,-9.16 -1.32,1.27 -2.61,2.57 -3.85,3.91 -17.48,-10.08 -33.2,-25.24 -39.62,-44.79 -1.99,-9.11 0.05,-18.55 -1.46,-27.71 -0.28,-0.94 -0.65,-1.82 -1.14,-2.65 -14.98,-26.32 -30.23,-52.49 -45.15,-78.84 -7.18,-12.67 -4.09,-30.19 6.94,-39.67 23.86,-17.87 52.27,-29.66 81.79,-33.82 0.87,-1.28 1.71,-2.57 2.58,-3.85 -24.98,2.67 -49.43,10.46 -71.14,23.13 19.92,-22.93 39.26,-46.35 59.52,-68.99 3.65,-4.01 7.11,-8.29 11.56,-11.47 m 63.44,60.7 c 1.45,1.43 3.22,2.48 5.26,2.84 17.48,4.36 33.83,12.26 51.17,17.06 -18.74,-6.81 -36.96,-15.33 -56.43,-19.9 m -70.89,52.8 c -11.45,2.21 -22,12.09 -22.19,24.22 0.16,9.29 -0.98,18.6 0.02,27.87 0.94,9.37 5.32,18.8 13.14,24.33 7.9,5.67 18.41,9.08 22.72,18.56 4.11,-7.55 11.44,-12.87 19.49,-15.6 -1.66,-2.11 -3.3,-4.23 -4.92,-6.35 6.7,-0.29 13.43,-0.4 20.14,-0.1 -1.74,2.15 -3.49,4.28 -5.25,6.41 8.29,2.48 15.51,8.16 19.82,15.68 3.26,-5.48 7.68,-10.55 13.65,-13.09 11.88,-5.07 21.44,-16.5 22.43,-29.62 0.8,-11.35 1.22,-22.9 -1.05,-34.1 -4.92,-15.18 -24.61,-23.41 -38.74,-15.72 -9.29,3.77 -11.73,15.61 -21.14,19.16 -8.28,-4.2 -11.81,-13.98 -19.8,-18.64 -5.51,-3.06 -12.11,-4.33 -18.32,-3.01 m 30,94.99 c -6.32,3.59 -10.31,10.73 -10.19,17.99 7.18,-0.98 12.94,-6.52 15.31,-13.2 2.23,0.04 4.47,0.09 6.72,0.15 3.04,6.13 7.93,12.03 15.01,13.34 -0.26,-5.68 -2.26,-11.42 -6.34,-15.48 -5.18,-5.36 -14.1,-6.65 -20.51,-2.8 z"
       id="path2"
       inkscape:connector-curvature="0"
       style="opacity:1;fill:#000000" />
    <path
       d="m 800.89,348.62 c 5.34,2.84 8.36,10.04 15.1,9.89 5.09,0 7.14,-5.19 10.49,-8.03 1.76,-1.06 2.97,1.32 4.23,2.17 -3.01,10.86 -18.24,14.31 -26.25,6.86 -3.22,-2.62 -3.77,-7.01 -3.57,-10.89 z"
       id="path4"
       inkscape:connector-curvature="0"
       style="opacity:1;fill:#000000" />
    <path
       d="m 856.62,349.22 c 5.73,2.04 8.43,8.68 14.5,9.99 5.1,-1.4 8.42,-5.86 11.74,-9.65 4,1.39 2.74,6.18 0.34,8.49 -5.87,7.82 -19.11,7.29 -24.78,-0.49 -1.82,-2.37 -1.74,-5.51 -1.8,-8.34 z"
       id="path6"
       inkscape:connector-curvature="0"
       style="opacity:1;fill:#000000" />
    <path
       d="m 933.22,441.2 c 14.14,6.85 29.11,11.74 43.45,18.13 12.3,5.54 24.43,12.33 33.46,22.56 6.99,7.59 11.46,17.02 15.67,26.33 13.08,30.02 17.45,62.77 27.26,93.84 -2.79,-0.54 -5.57,-1.09 -8.34,-1.64 0.03,13.13 3.38,25.91 6.94,38.45 -3.34,4.84 -6.63,9.71 -9.88,14.61 -1.74,-0.6 -3.49,-1.14 -5.2,-1.75 1.62,-14.29 1.3,-28.68 1.01,-43.03 -5.48,5.24 -11.83,9.69 -19.08,12.07 0.47,-21.71 0.77,-43.44 0.28,-65.16 -6.83,17.34 -19.42,31.81 -33.95,43.21 -8.96,7.15 -18.24,13.89 -27.85,20.12 8.13,-14.05 16.25,-28.17 22.95,-42.96 4.45,-21.33 3.94,-43.33 2.79,-64.98 -3.24,4.33 -6.09,8.92 -9.03,13.46 -4.43,-2.39 -8.86,-4.78 -13.09,-7.51 3.05,-8.59 5.6,-17.35 7.9,-26.17 -10.54,9.94 -21.8,19.31 -34.65,26.13 3.96,-10.06 6.45,-20.73 6.66,-31.57 -10.12,8.38 -21.02,15.84 -32.7,21.88 5.73,-9.93 11.23,-19.99 16.64,-30.1 -1.47,-1.31 -2.93,-2.64 -4.36,-3.96 11.25,-2.34 25.7,-0.89 32.11,10.01 -0.87,-3.79 -2.14,-7.46 -3.43,-11.12 3.99,-1.68 8,-3.33 11.94,-5.15 -1.07,-2.27 -2.12,-4.53 -3.09,-6.83 -0.79,3.93 -2.82,8.23 -6.96,9.48 -9.49,2.61 -19.24,-0.9 -28.84,0.23 8.73,-6.88 8.22,-18.9 11.39,-28.58 m 52.4,133.94 c 3.27,-4.1 5.94,-8.66 8.15,-13.41 8.71,-18.91 12.73,-39.58 15.69,-60.06 -7.72,24.56 -14.66,49.39 -23.84,73.47 m 24.88,-26.53 c 3.03,-1.07 5.85,-2.88 7.69,-5.57 3.83,-5.63 5.86,-12.92 3.75,-19.58 -9.3,4.37 -12.12,15.72 -11.44,25.15 z"
       id="path8"
       inkscape:connector-curvature="0"
       style="opacity:1;fill:#000000" />
    <path
       d="m 683.01,465.1 c 15.28,-11.53 33.45,-18.51 51.84,-23.34 9.21,7.08 18.89,14.57 23.95,25.34 1.8,4.31 3.87,9.17 2.23,13.85 -3.01,8.74 -8.31,16.77 -9.4,26.11 -1.01,7.3 2.64,14.11 5.87,20.39 8.57,13.72 26.29,17.34 35.91,30.07 20.96,28.8 30.24,65.13 28.58,100.49 -0.58,10.02 0.97,19.97 1.27,29.96 0.62,12.33 0.98,24.68 1.23,37.02 0.14,4.75 -0.17,9.57 0.89,14.25 -32.11,-3.69 -64.84,-7.23 -94.97,-19.7 -5.23,-1.99 -8.17,-7.43 -9.47,-12.57 0.17,-4.32 2.18,-8.61 1.02,-12.99 -4.78,-27.27 -24.42,-48.69 -31.82,-75.04 20.84,20.96 31.32,49.2 47.14,73.66 5.3,8.31 11.07,16.45 18.37,23.14 -8.72,-15.2 -17.3,-30.5 -25.39,-46.05 -5.91,-10.72 -10.67,-22.12 -17.8,-32.13 -7.17,-10.42 -15.33,-20.48 -19.49,-32.58 -0.74,-1.85 0.68,-3.6 1.25,-5.27 -9.16,-4.4 -17.65,-10.01 -26.54,-14.86 9.63,28.32 19.93,56.45 31.89,83.89 -17.42,-9.74 -36.2,-17.18 -55.78,-21.17 -3.72,-0.72 -7.45,-1.62 -11.25,-1.61 9.78,4.42 20.19,7.32 30.13,11.38 14.72,5.81 29.57,12.8 40.6,24.48 4.76,5.06 8.89,10.83 11.54,17.29 1.63,5.3 1.79,10.92 2.51,16.4 -23.41,-13.91 -47.12,-27.49 -68.84,-43.98 -13.91,-10.47 -26.7,-22.41 -38.19,-35.47 17.43,-45.54 31.83,-92.15 47.41,-138.34 4.67,-13.26 14.17,-24.28 25.31,-32.62 m 7.21,106.34 c -9.5,-9.74 -14.63,-22.71 -18.18,-35.62 -2.12,6.55 -1.14,13.67 1.17,20.04 4.62,12.1 13.68,21.67 21.7,31.59 -0.41,3.27 -1.22,6.47 -1.93,9.68 0.51,-0.05 1.53,-0.16 2.04,-0.21 2,-3.44 3.18,-7.28 5.04,-10.8 4.07,6.88 7.56,14.09 11.96,20.77 1.28,1.62 0.38,4.65 2.82,5.26 -0.15,-2.94 -2.23,-5.12 -3.41,-7.65 -16.4,-36.18 -20.88,-76.78 -39.75,-111.95 3.23,26.93 16.87,51.64 18.54,78.89 m -49.45,22.1 c -1.91,7.83 0.09,15.85 0.44,23.74 8.28,-8.52 6.25,-21.2 6.32,-31.98 -2.78,2.21 -5.88,4.6 -6.76,8.24 z"
       id="path10"
       inkscape:connector-curvature="0"
       style="opacity:1;fill:#000000" />
    <path
       d="m 1049.34,603.88 c 8.71,7.4 8.97,19.81 9,30.34 -3.58,-1.29 -6.55,-4.01 -7.99,-7.54 -2.96,-7.17 -3.44,-15.4 -1.01,-22.8 z"
       id="path12"
       inkscape:connector-curvature="0"
       style="opacity:1;fill:#000000" />
  </g>
  <g
     id="#ffffffff"
     transform="translate(0,-412.99992)" />
</svg>
